<?xml version="1.0" encoding="UTF-8"?>
<svg xmlns="http://www.w3.org/2000/svg" xmlns:xlink="http://www.w3.org/1999/xlink" width="40px" height="40px" viewBox="0 0 40 40" version="1.1">
<g id="surface1">
<path style=" stroke:none;fill-rule:nonzero;fill:rgb(0%,0%,0%);fill-opacity:1;" d="M 18.59375 15.589844 C 18.59375 15.4375 18.472656 15.3125 18.320312 15.3125 L 16.679688 15.3125 C 16.53125 15.3125 16.40625 15.4375 16.40625 15.589844 L 16.40625 18.90625 L 13.105469 18.90625 C 12.945312 18.90625 12.8125 19.027344 12.8125 19.179688 L 12.8125 20.820312 C 12.8125 20.96875 12.945312 21.09375 13.105469 21.09375 L 16.40625 21.09375 L 16.40625 24.410156 C 16.40625 24.5625 16.53125 24.6875 16.679688 24.6875 L 18.320312 24.6875 C 18.472656 24.6875 18.59375 24.5625 18.59375 24.410156 L 18.59375 21.09375 L 21.894531 21.09375 C 22.054688 21.09375 22.1875 20.96875 22.1875 20.820312 L 22.1875 19.179688 C 22.1875 19.027344 22.054688 18.90625 21.894531 18.90625 L 18.59375 18.90625 Z M 21.894531 27.5 L 13.105469 27.5 C 12.945312 27.5 12.8125 27.625 12.8125 27.773438 L 12.8125 29.414062 C 12.8125 29.5625 12.945312 29.6875 13.105469 29.6875 L 21.894531 29.6875 C 22.054688 29.6875 22.1875 29.5625 22.1875 29.414062 L 22.1875 27.773438 C 22.1875 27.625 22.054688 27.5 21.894531 27.5 Z M 21.617188 7.867188 C 21.382812 7.632812 21.066406 7.5 20.734375 7.5 L 7.5 7.5 C 6.808594 7.5 6.25 8.058594 6.25 8.75 L 6.25 36.25 C 6.25 36.941406 6.808594 37.5 7.5 37.5 L 27.5 37.5 C 28.191406 37.5 28.75 36.941406 28.75 36.25 L 28.75 15.519531 C 28.75 15.1875 28.617188 14.871094 28.382812 14.636719 Z M 25.9375 34.6875 L 9.0625 34.6875 L 9.0625 10.3125 L 20.085938 10.3125 L 25.9375 16.164062 Z M 33.367188 11.976562 L 23.878906 2.847656 C 23.644531 2.625 23.335938 2.5 23.011719 2.5 L 11.5625 2.5 C 11.390625 2.5 11.25 2.640625 11.25 2.8125 L 11.25 5 C 11.25 5.171875 11.390625 5.3125 11.5625 5.3125 L 22.382812 5.3125 L 30.9375 13.539062 L 30.9375 32.1875 C 30.9375 32.359375 31.078125 32.5 31.25 32.5 L 33.4375 32.5 C 33.609375 32.5 33.75 32.359375 33.75 32.1875 L 33.75 12.875 C 33.75 12.535156 33.613281 12.210938 33.367188 11.976562 Z M 33.367188 11.976562 "/>
</g>
</svg>
