<?xml version="1.0" standalone="no"?>
<!DOCTYPE svg PUBLIC "-//W3C//DTD SVG 20010904//EN"
 "http://www.w3.org/TR/2001/REC-SVG-20010904/DTD/svg10.dtd">
<svg version="1.0" xmlns="http://www.w3.org/2000/svg"
 width="180.000000pt" height="180.000000pt" viewBox="0 0 180.000000 180.000000"
 preserveAspectRatio="xMidYMid meet">

<g transform="translate(0.000000,180.000000) scale(0.100000,-0.100000)"
fill="#000000" stroke="none">
<path d="M793 1785 c-122 -27 -161 -56 -443 -338 -231 -232 -265 -270 -296
-332 -68 -140 -68 -295 2 -434 29 -58 70 -104 296 -329 225 -226 271 -267 329
-296 139 -70 294 -70 434 -2 62 31 100 65 333 297 226 226 267 272 296 330 70
139 70 294 2 434 -31 62 -65 100 -296 332 -284 284 -321 311 -447 338 -82 18
-129 18 -210 0z m165 -55 c132 -22 153 -37 440 -323 220 -220 268 -272 292
-322 56 -117 58 -242 4 -363 -21 -48 -65 -97 -287 -320 -220 -220 -272 -268
-322 -292 -120 -58 -250 -58 -370 0 -50 24 -102 72 -322 292 -222 223 -266
272 -287 320 -54 121 -52 246 4 363 24 50 72 102 292 322 283 282 310 302 431
322 29 5 54 9 57 10 3 0 33 -4 68 -9z"/>
<path d="M530 1150 l0 -160 -150 0 -150 0 0 -90 0 -90 150 0 150 0 0 -160 0
-160 90 0 90 0 0 160 0 160 150 0 150 0 0 90 0 90 -150 0 -150 0 0 160 0 160
-90 0 -90 0 0 -160z"/>
<path d="M1130 755 l0 -105 220 0 220 0 0 105 0 105 -220 0 -220 0 0 -105z"/>
</g>
</svg>
